<?xml version="1.0" standalone="no"?>
<!DOCTYPE svg PUBLIC "-//W3C//DTD SVG 20010904//EN"
 "http://www.w3.org/TR/2001/REC-SVG-20010904/DTD/svg10.dtd">
<svg version="1.0" xmlns="http://www.w3.org/2000/svg"
 width="150.000000pt" height="150.000000pt" viewBox="0 0 150.000000 150.000000"
 preserveAspectRatio="xMidYMid meet">
<metadata>
Created by potrace 1.14, written by Peter Selinger 2001-2017
</metadata>
<g transform="translate(0.000000,150.000000) scale(0.100000,-0.100000)"
fill="#000000" stroke="none">
<path d="M620 1484 c-246 -64 -416 -285 -409 -533 4 -125 50 -244 133 -338 21
-24 82 -80 135 -122 132 -108 134 -110 195 -243 29 -61 48 -71 98 -55 18 6 33
23 47 53 12 24 21 47 21 52 0 29 72 110 161 183 121 98 150 126 194 194 32 50
70 141 80 192 9 50 6 180 -5 224 -50 186 -208 344 -391 392 -72 18 -189 19
-259 1z m268 -109 c305 -110 387 -495 155 -721 -165 -160 -436 -157 -600 5
-110 110 -153 283 -108 437 16 56 78 156 119 191 124 108 286 141 434 88z"/>
<path d="M563 1154 c2 -109 3 -117 26 -135 23 -18 23 -21 17 -136 -4 -65 -9
-143 -11 -172 -5 -63 5 -81 46 -81 36 0 47 21 43 85 -16 289 -16 285 8 305 21
16 23 27 25 134 2 97 0 116 -12 116 -12 0 -15 -16 -15 -82 0 -45 -3 -78 -7
-74 -4 4 -8 39 -8 78 0 47 -5 73 -13 76 -12 4 -16 -23 -12 -80 1 -16 -3 -28
-8 -28 -5 0 -10 23 -9 50 0 28 -3 53 -6 56 -15 16 -23 -12 -22 -80 1 -42 -2
-76 -7 -76 -4 0 -8 36 -8 80 0 62 -3 80 -14 80 -12 0 -14 -22 -13 -116z m87
-24 c0 -11 -4 -20 -10 -20 -5 0 -10 9 -10 20 0 11 5 20 10 20 6 0 10 -9 10
-20z"/>
<path d="M884 1260 c-40 -16 -74 -68 -75 -116 -3 -190 0 -244 16 -244 12 0 15
-20 15 -118 0 -120 6 -143 41 -155 9 -3 26 1 38 9 21 15 21 21 21 325 0 338 3
323 -56 299z"/>
<path d="M595 55 c-68 -14 -76 -21 -39 -37 42 -17 351 -17 383 1 13 7 19 17
14 22 -22 22 -269 31 -358 14z"/>
</g>
</svg>
