<?xml version="1.0" encoding="UTF-8"?><svg xmlns="http://www.w3.org/2000/svg" xmlns:xlink="http://www.w3.org/1999/xlink" width="1012.5pt" zoomAndPan="magnify" viewBox="0 0 1012.5 487.499991" height="487.499991pt" preserveAspectRatio="xMidYMid meet" version="1.2"><defs><g/><clipPath xml:id="clip1" id="clip1"><path d="M 0.269531 11.230469 L 337.589844 11.230469 L 337.589844 475.984375 L 0.269531 475.984375 Z M 0.269531 11.230469 "/></clipPath></defs><g xml:id="surface1" id="surface1"><g clip-rule="nonzero" clip-path="url(#clip1)"><path style=" stroke:none;fill-rule:nonzero;fill:rgb(98.039246%,38.819885%,1.959229%);fill-opacity:1;" d="M 141.957031 389.261719 C 135.355469 370.035156 123.28125 353.152344 107.207031 340.691406 L 67.695312 310.050781 C 27.125 278.589844 2.488281 230.875 0.351562 179.617188 C 0.351562 86.617188 75.824219 11.226562 168.929688 11.226562 C 262.03125 11.226562 337.507812 86.617188 337.507812 179.617188 C 335.371094 230.875 310.734375 278.589844 270.164062 310.050781 L 230.652344 340.691406 C 214.578125 353.152344 202.5 370.035156 195.902344 389.261719 L 191.253906 402.800781 C 187.984375 412.328125 179.015625 418.730469 168.929688 418.730469 C 158.84375 418.730469 149.875 412.328125 146.605469 402.800781 Z M 168.929688 475.980469 C 131.6875 475.980469 101.496094 471.457031 101.496094 465.878906 C 101.496094 460.296875 131.6875 455.773438 168.929688 455.773438 C 206.171875 455.773438 236.359375 460.296875 236.359375 465.878906 C 236.359375 471.457031 206.171875 475.980469 168.929688 475.980469 Z M 168.929688 310.960938 C 243.410156 310.960938 303.792969 250.648438 303.792969 176.25 C 303.792969 101.851562 243.410156 41.539062 168.929688 41.539062 C 94.445312 41.539062 34.066406 101.851562 34.066406 176.25 C 34.066406 250.648438 94.445312 310.960938 168.929688 310.960938 Z M 144.363281 164.640625 L 150.476562 270.089844 C 150.832031 276.367188 144.054688 281.761719 136.402344 282.09375 C 128.746094 282.425781 121.398438 277.640625 121.042969 271.367188 C 121.019531 270.941406 121.023438 270.507812 121.046875 270.089844 L 127.160156 164.640625 C 116.355469 162.242188 111.613281 152.609375 111.613281 141.09375 L 111.613281 86.328125 C 111.613281 83.910156 113.574219 81.953125 115.992188 81.953125 C 118.414062 81.953125 120.375 83.910156 120.375 86.328125 L 120.375 130.957031 C 120.375 132.175781 121.363281 133.164062 122.582031 133.164062 C 123.800781 133.164062 124.792969 132.175781 124.789062 130.957031 L 124.792969 86.328125 C 124.792969 83.910156 126.75 81.953125 129.171875 81.953125 C 131.59375 81.953125 133.550781 83.910156 133.550781 86.328125 L 133.550781 130.957031 C 133.550781 132.175781 134.539062 133.164062 135.761719 133.164062 C 136.980469 133.164062 137.96875 132.175781 137.96875 130.957031 L 137.96875 86.328125 C 137.96875 83.910156 139.929688 81.953125 142.347656 81.953125 C 144.769531 81.953125 146.730469 83.910156 146.730469 86.328125 L 146.730469 130.957031 C 146.730469 132.175781 147.71875 133.164062 148.9375 133.164062 C 150.15625 133.164062 151.144531 132.175781 151.144531 130.957031 L 151.144531 86.328125 C 151.144531 83.910156 153.105469 81.953125 155.527344 81.953125 C 157.949219 81.953125 159.90625 83.910156 159.90625 86.328125 L 159.90625 141.09375 C 159.90625 152.609375 155.167969 162.242188 144.363281 164.640625 Z M 229.617188 192.742188 L 229.617188 268.210938 C 229.617188 275.886719 222.671875 282.113281 214.105469 282.113281 C 205.539062 282.113281 198.59375 275.890625 198.59375 268.210938 L 198.59375 198.925781 L 188.429688 195.589844 L 188.429688 121.855469 C 188.429688 99.816406 205.023438 81.953125 229.617188 81.953125 Z M 229.617188 192.742188 "/></g><g style="fill:rgb(32.939148%,32.939148%,32.939148%);fill-opacity:1;"><g transform="translate(386.037882, 320.757204)"><path style="stroke:none;" d="M 124.628906 -44.34375 C 124.628906 -62.511719 113.691406 -78.136719 97.867188 -85.171875 C 102.363281 -92.203125 104.707031 -100.601562 104.707031 -109.394531 C 104.707031 -135.375 83.804688 -156.277344 58.019531 -156.277344 L 0 -156.277344 L 1.367188 -150.222656 C 4.101562 -138.5 15.042969 -130.101562 27.542969 -130.101562 L 58.019531 -130.101562 C 69.542969 -130.101562 78.722656 -120.917969 78.722656 -109.589844 L 78.722656 -109.394531 C 78.722656 -98.0625 69.542969 -88.882812 58.019531 -88.882812 L 33.988281 -88.882812 L 33.988281 -124.238281 L 27.933594 -122.871094 C 16.214844 -119.941406 8.007812 -109.199219 8.007812 -96.695312 L 8.007812 -34.1875 L 14.066406 -35.554688 C 25.785156 -38.484375 33.988281 -49.226562 33.988281 -61.730469 L 33.988281 -62.707031 L 80.09375 -62.707031 C 85.171875 -62.707031 89.859375 -60.753906 93.179688 -57.433594 C 96.5 -54.109375 98.453125 -49.421875 98.453125 -44.34375 C 98.453125 -34.1875 90.25 -25.980469 80.09375 -25.980469 L 0 -25.980469 L 1.5625 -19.925781 C 4.882812 -8.203125 17.972656 0 32.816406 0 L 80.09375 0 C 104.707031 0 124.628906 -19.730469 124.628906 -44.34375 Z M 124.628906 -44.34375 "/></g></g><g style="fill:rgb(32.939148%,32.939148%,32.939148%);fill-opacity:1;"><g transform="translate(522.779961, 320.757204)"><path style="stroke:none;" d="M 25.785156 -84.390625 L 19.925781 -83.023438 C 8.203125 -80.289062 0 -69.933594 0 -57.824219 L 0 0 L 5.859375 -1.367188 C 17.582031 -3.90625 25.785156 -14.457031 25.785156 -26.371094 Z M 57.042969 -51.375 C 68.175781 -55.476562 75.011719 -66.613281 73.839844 -78.136719 L 73.253906 -84.390625 L 48.640625 -75.988281 L 46.6875 -75.207031 C 35.554688 -71.105469 28.714844 -60.167969 29.886719 -48.445312 L 30.472656 -42.390625 L 55.085938 -50.789062 L 56.648438 -51.179688 C 56.847656 -51.375 57.042969 -51.375 57.042969 -51.375 Z M 57.042969 -51.375 "/></g></g><g style="fill:rgb(100%,79.998779%,0%);fill-opacity:1;"><g transform="translate(608.756506, 314.528338)"><path style="stroke:none;" d="M 81.289062 -81.289062 L 75.457031 -79.972656 C 64.355469 -77.339844 56.261719 -67.367188 56.261719 -55.699219 L 56.261719 -40.644531 C 56.261719 -31.988281 49.300781 -24.839844 40.644531 -24.839844 C 31.988281 -24.839844 24.839844 -31.988281 24.839844 -40.644531 L 24.839844 -81.289062 L 19.195312 -79.972656 C 7.902344 -77.339844 0 -67.367188 0 -55.699219 L 0 -40.644531 C 0 -18.066406 18.066406 0 40.644531 0 C 63.039062 0 81.289062 -18.066406 81.289062 -40.644531 Z M 81.289062 -81.289062 "/></g></g><g style="fill:rgb(100%,79.998779%,0%);fill-opacity:1;"><g transform="translate(702.272325, 314.528338)"><path style="stroke:none;" d="M 81.289062 -43.089844 C 81.289062 -63.601562 64.730469 -80.347656 44.21875 -80.347656 L 24.839844 -80.347656 L 24.839844 -90.132812 L 19.195312 -88.816406 C 7.902344 -86.183594 0 -76.210938 0 -64.542969 L 0 -0.1875 L 5.644531 -1.503906 C 16.933594 -4.140625 24.839844 -14.113281 24.839844 -25.589844 L 24.839844 -39.703125 C 24.839844 -48.359375 31.800781 -55.324219 40.644531 -55.324219 C 49.300781 -55.324219 56.261719 -48.359375 56.261719 -39.703125 L 56.261719 -0.1875 L 62.097656 -1.503906 C 73.199219 -3.953125 81.289062 -14.113281 81.289062 -25.589844 Z M 81.289062 -43.089844 "/></g></g><g style="fill:rgb(100%,79.998779%,0%);fill-opacity:1;"><g transform="translate(795.599988, 314.528338)"><path style="stroke:none;" d="M 40.644531 -24.839844 C 31.988281 -24.839844 24.839844 -31.988281 24.839844 -40.644531 C 24.839844 -49.300781 31.988281 -56.261719 40.644531 -56.261719 L 55.699219 -56.261719 C 67.367188 -56.261719 77.339844 -64.167969 79.972656 -75.457031 L 81.289062 -81.289062 L 40.644531 -81.289062 C 18.066406 -81.289062 0 -63.039062 0 -40.644531 C 0 -18.066406 18.066406 0 40.644531 0.1875 L 55.699219 0.1875 C 67.367188 0.1875 77.339844 -7.902344 79.972656 -19.195312 L 81.289062 -24.839844 Z M 40.644531 -24.839844 "/></g></g><g style="fill:rgb(100%,79.998779%,0%);fill-opacity:1;"><g transform="translate(886.481548, 314.528338)"><path style="stroke:none;" d="M 43.84375 -81.289062 L 25.027344 -81.289062 L 25.027344 -150.539062 L 19.195312 -149.03125 C 7.902344 -146.585938 0 -136.425781 0 -124.945312 L 0 0 L 5.832031 -1.316406 C 16.933594 -3.953125 25.027344 -13.925781 25.027344 -25.402344 L 25.027344 -40.644531 C 25.027344 -49.300781 31.988281 -56.261719 40.644531 -56.261719 C 49.300781 -56.261719 56.453125 -49.300781 56.453125 -40.644531 L 56.453125 0.1875 L 62.097656 -1.316406 C 73.386719 -3.761719 81.289062 -13.925781 81.289062 -25.402344 L 81.289062 -43.65625 C 81.289062 -64.355469 64.542969 -81.289062 43.84375 -81.289062 Z M 43.84375 -81.289062 "/></g></g></g></svg>